<svg
  version="1.0"
  xmlns="http://www.w3.org/2000/svg"
  width="72"
  height="72"
  viewBox="0 0 250.000000 490.000000"
  preserveAspectRatio="xMidYMid meet"
>
  <g transform="translate(0.000000,508.000000) scale(0.100000,-0.100000)" fill="#000000" stroke="none">
    <path d="M2265 3771 c-498 -80 -891 -441 -1019 -939 -15 -57 -15 -66 -1 -95
      37 -79 154 -90 217 -20 9 10 31 60 47 110 56 170 129 288 254 410 200 195 420
      286 697 286 192 1 313 -28 473 -111 234 -122 415 -340 491 -593 35 -113 73
      -149 160 -149 36 0 52 6 78 29 29 26 33 35 32 78 -3 102 -102 341 -196 474
      -175 245 -429 421 -717 496 -82 22 -123 26 -281 28 -102 2 -207 0 -235 -4z"
    />
    <path d="M1804 2478 c31 -287 249 -535 522 -593 302 -64 609 82 745 355 36 72
      69 196 69 257 l0 43 -671 0 -672 0 7 -62z"
    />
    <path d="M1325 2413 c-39 -10 -75 -44 -86 -82 -10 -34 -8 -51 20 -142 42 -136
      122 -299 167 -338 81 -72 204 -8 204 105 0 24 -14 61 -39 108 -22 39 -56 118
      -76 176 -38 111 -61 144 -112 166 -33 14 -44 15 -78 7z"
    />
    <path d="M3503 2390 c-38 -23 -51 -46 -88 -160 -15 -47 -47 -123 -71 -168 -24
      -46 -44 -97 -44 -113 0 -72 62 -129 139 -129 37 0 49 5 76 34 61 65 166 309
      182 422 14 104 -100 172 -194 114z"
    />
    <path d="M1804 1691 c-46 -28 -64 -59 -64 -110 0 -37 5 -49 35 -76 69 -66 321
      -171 435 -182 46 -4 59 -2 82 16 33 26 53 86 44 133 -11 58 -58 93 -178 132
      -58 19 -137 51 -175 70 -79 41 -131 46 -179 17z"
    />
    <path d="M2950 1675 c-36 -19 -114 -51 -175 -71 -154 -52 -193 -96 -173 -194
      11 -53 58 -90 114 -90 90 0 324 93 423 167 40 31 64 83 55 121 -26 104 -123
      131 -244 67z"
    />
  </g>
</svg>
